<svg width="729" height="184" viewBox="0 0 729 184" fill="none" xmlns="http://www.w3.org/2000/svg">
<g clip-path="url(#clip0_7_379)">
<path d="M86.3529 88.1412L102.396 90.6798C120.937 94.1495 137.036 106.12 140.469 125.103C146.63 159.156 117.684 179.59 86.131 180.808L0 180.785V177.542C10.2311 177.478 15.2451 171.076 16.0383 161.547L16.0666 31.3615C15.4198 21.6057 10.4058 15.2685 0.0283279 14.9211L0 11.6969L86.1074 11.7062C109.223 12.2899 129.1 25.7239 129.109 49.9978C129.119 73.2063 107.882 86.5523 86.3529 88.1412ZM50.4898 88.1366H71.9576C72.477 88.1366 76.7781 86.594 77.5618 86.228C99.5207 75.9348 100.725 26.882 77.5524 17.7932C76.0321 17.1956 71.9718 15.8753 70.5412 15.8753H50.4898V88.1412V88.1366ZM50.4898 92.769V170.825C50.4898 172.901 53.8183 175.286 55.6927 175.907C59.3375 177.112 69.6583 176.912 73.8367 176.611C109.525 174.022 115.97 121.207 92.0138 101.334C87.4011 97.508 77.5146 92.769 71.4808 92.769H50.4851H50.4898Z" fill="#F5C1D2"/>
<path d="M500.625 27.2202C499.676 18.4139 493.996 15.426 485.578 14.8933L485.555 11.7247C497.386 10.3257 509.293 8.73216 520.691 5.22542C523.183 4.45643 528.278 1.86227 530.232 1.58896C530.884 1.49631 533.084 2.27919 533.202 2.74707L533.193 160.162C534.005 168.685 539.784 170.941 547.815 170.589L547.833 174.036C532.881 176.306 517.669 178.274 503.576 183.954C502.986 184.297 500.63 182.583 500.63 182.406V159.013L495.833 167.041C474.563 192.76 438.818 186.603 422.695 158.86C408.082 133.715 409.489 97.4014 429.14 75.1565C446.807 55.1583 479.927 47.9086 500.63 67.7493V27.2202H500.625ZM472.689 60.9442C460.177 61.9958 453.256 75.6985 450.272 86.1817C444.314 107.125 445.442 149.118 466.693 161.982C480.163 170.135 494.572 165.433 500.521 151.263C500.125 135.878 501.414 119.878 500.649 104.559C499.87 88.989 493.959 59.1561 472.694 60.9396L472.689 60.9442Z" fill="#F5C1D2"/>
<path d="M363.792 30.9261C363.66 28.9527 363.235 25.5525 362.71 23.6532C360.761 16.6211 354.788 15.5325 348.249 14.921V11.7247C361.691 10.4924 374.481 8.10211 387.28 3.95146C389.032 3.38167 394.858 0.0185256 395.802 2.74239L395.882 155.992C396.539 158.049 396.185 160.189 396.562 162.274C397.856 169.496 404.48 170.913 410.981 170.584L410.991 174.031C399.39 175.643 387.823 177.44 376.535 180.549C374.386 181.142 367.668 183.87 366.308 183.907C365.397 183.93 364.712 183.092 363.796 183.097V158.545L361.346 163.321C342.333 192.167 303.652 188.693 286.216 159.897C268.667 130.917 273.024 86.9506 301.834 66.4475C317.532 55.2741 340.195 51.633 356.965 62.6443C359.382 64.2286 361.313 66.2993 363.792 67.7539C363.197 55.691 364.59 42.9055 363.792 30.9261ZM335.374 60.9349C321.616 62.408 314.629 78.8532 312.117 90.4481C308.241 108.357 309.317 134.424 318.882 150.521C330.048 169.32 354.184 172.785 363.683 150.799C363.126 131.83 365.321 111.35 362.238 92.6717C360.048 79.409 352.475 59.1005 335.374 60.9349Z" fill="#F5C1D2"/>
<path d="M273.671 158.554C271.924 174.513 259.182 185.774 242.506 182.43C229.296 179.78 223.975 167.258 222.709 155.307C221.822 154.172 221.095 158.415 220.911 158.864C204.716 197.772 141.545 187.243 149.246 146.408C152.853 127.267 172.815 122.565 189.925 121.953L217.525 120.096C215.731 104.193 214.041 82.0542 196.61 75.0778C180.104 68.4673 162.626 77.8016 156.583 93.6167L152.881 93.223C157.735 73.9475 175.525 58.3408 195.647 55.7652C253.441 48.3626 248.096 114.319 254.399 151.3C255.216 156.09 256.16 162.302 261.415 164.331C266.646 166.35 268.79 162.515 270.357 158.276L273.676 158.554H273.671ZM214.121 123.941C200.382 124.547 181.861 125.154 178.952 141.752C173.886 170.654 217.497 175.601 221.487 148.293L218.404 124.557C217.988 123.241 215.226 123.89 214.121 123.936V123.941Z" fill="#F5C1D2"/>
<path d="M723.806 102.497H646.424C646.325 115.171 648.303 128.309 654.837 139.404C664.091 155.121 680.918 162.77 699.189 158.698C712.437 155.747 722.579 144.106 725.671 131.408L729 131.677C726.327 157.299 705.733 180.98 678.737 183.087C610.901 188.392 592.667 93.4036 647.052 63.0334C659.563 56.0477 674.166 53.4721 688.344 56.4693C709.826 61.0044 724.373 81.2574 723.806 102.488V102.497ZM646.896 98.3279H683.935C684.095 98.3279 686.503 97.6516 686.871 97.5033C693.883 94.7146 691.961 80.5579 690.46 74.7813C685.389 55.2834 668.147 54.3939 656.891 69.9218C651.131 77.8711 647.392 88.5581 646.896 98.3279Z" fill="#F5C1D2"/>
<path d="M549.698 180.785V177.547C560.982 177.496 565.062 169.723 565.76 159.726C567.521 134.54 564.453 107.338 565.68 81.943C564.802 72.7708 559.821 69.2409 550.638 69.1482L550.709 66.1974L551.412 65.5025C562.644 64.5575 574.211 62.8203 584.976 59.5406C587.077 58.9013 594.518 55.691 595.698 55.6864C596.472 55.6864 597.209 55.9736 597.837 56.3952L598.323 57.771L598.271 159.735C598.932 170.158 602.908 176.94 614.31 177.57L614.333 180.79H549.689L549.698 180.785Z" fill="#F5C1D2"/>
<path d="M594.358 5.37823C603.98 15.0137 600.731 33.548 587.436 38.3287C569.637 44.7261 555.435 28.1698 561.601 11.5764C566.237 -0.898713 585.194 -3.79861 594.358 5.38286V5.37823Z" fill="#F5C1D2"/>
</g>
<defs>
<clipPath id="clip0_7_379">
<rect width="729" height="184" fill="white"/>
</clipPath>
</defs>
</svg>
